<svg width="100%" viewBox="117 117 450.29 446" xmlns="http://www.w3.org/2000/svg" role="img" style="">
<title style="fill:rgb(0, 0, 0);stroke:none;color:rgb(251, 251, 254);stroke-width:1px;stroke-linecap:butt;stroke-linejoin:miter;opacity:1;font-family:&quot;Anthropic Sans&quot;, -apple-system, BlinkMacSystemFont, &quot;Segoe UI&quot;, sans-serif;font-size:16px;font-weight:400;text-anchor:start;dominant-baseline:auto">Square hexagonal logo filling the canvas</title>
<desc style="fill:rgb(0, 0, 0);stroke:none;color:rgb(251, 251, 254);stroke-width:1px;stroke-linecap:butt;stroke-linejoin:miter;opacity:1;font-family:&quot;Anthropic Sans&quot;, -apple-system, BlinkMacSystemFont, &quot;Segoe UI&quot;, sans-serif;font-size:16px;font-weight:400;text-anchor:start;dominant-baseline:auto">The logo enlarged to fill the square SVG canvas. The cards' outer edges sit flush against the left and right edges; the hexagon has minimum vertical breathing room above and below.</desc>
<g stroke="#1d2630" stroke-width="8" stroke-linejoin="round" stroke-linecap="round" style="fill:rgb(0, 0, 0);stroke:rgb(29, 38, 48);color:rgb(251, 251, 254);stroke-width:8px;stroke-linecap:round;stroke-linejoin:round;opacity:1;font-family:&quot;Anthropic Sans&quot;, -apple-system, BlinkMacSystemFont, &quot;Segoe UI&quot;, sans-serif;font-size:16px;font-weight:400;text-anchor:start;dominant-baseline:auto">
<rect x="140" y="242.5" width="120" height="195" rx="9" fill="#6e675e" transform="rotate(-12 200 340)" style="fill:rgb(110, 103, 94);stroke:rgb(29, 38, 48);color:rgb(251, 251, 254);stroke-width:8px;stroke-linecap:round;stroke-linejoin:round;opacity:1;font-family:&quot;Anthropic Sans&quot;, -apple-system, BlinkMacSystemFont, &quot;Segoe UI&quot;, sans-serif;font-size:16px;font-weight:400;text-anchor:start;dominant-baseline:auto"/>
<rect x="420" y="242.5" width="120" height="195" rx="9" fill="#6e675e" transform="rotate(12 480 340)" style="fill:rgb(110, 103, 94);stroke:rgb(29, 38, 48);color:rgb(251, 251, 254);stroke-width:8px;stroke-linecap:round;stroke-linejoin:round;opacity:1;font-family:&quot;Anthropic Sans&quot;, -apple-system, BlinkMacSystemFont, &quot;Segoe UI&quot;, sans-serif;font-size:16px;font-weight:400;text-anchor:start;dominant-baseline:auto"/>
<path d="M329.61 176Q340 170 350.39 176L476.83 249Q487.22 255 487.22 267L487.22 413Q487.22 425 476.83 431L350.39 504Q340 510 329.61 504L203.17 431Q192.78 425 192.78 413L192.78 267Q192.78 255 203.17 249Z" fill="#ebe3d1" style="fill:rgb(235, 227, 209);stroke:rgb(29, 38, 48);color:rgb(251, 251, 254);stroke-width:8px;stroke-linecap:round;stroke-linejoin:round;opacity:1;font-family:&quot;Anthropic Sans&quot;, -apple-system, BlinkMacSystemFont, &quot;Segoe UI&quot;, sans-serif;font-size:16px;font-weight:400;text-anchor:start;dominant-baseline:auto"/>
<path d="M416.21 296Q435.26 285 416.21 274L346.93 234Q340 230 333.07 234L251.67 281Q244.74 285 244.74 293L244.74 387Q244.74 395 251.67 399L333.07 446Q340 450 346.93 446L416.21 406Q435.26 395 416.21 384L398.89 374Q391.96 370 385.03 374L346.93 396Q340 400 333.07 396L294.97 374Q288.04 370 288.04 362L288.04 318Q288.04 310 294.97 306L333.07 284Q340 280 346.93 284L385.03 306Q391.96 310 398.89 306Z" fill="#e67217" style="fill:rgb(230, 114, 23);stroke:rgb(29, 38, 48);color:rgb(251, 251, 254);stroke-width:8px;stroke-linecap:round;stroke-linejoin:round;opacity:1;font-family:&quot;Anthropic Sans&quot;, -apple-system, BlinkMacSystemFont, &quot;Segoe UI&quot;, sans-serif;font-size:16px;font-weight:400;text-anchor:start;dominant-baseline:auto"/>
</g>
</svg>